<mxfile host="Electron" modified="2024-05-21T11:30:46.193Z" agent="Mozilla/5.0 (Windows NT 10.0; Win64; x64) AppleWebKit/537.36 (KHTML, like Gecko) draw.io/24.2.5 Chrome/120.0.6099.109 Electron/28.1.0 Safari/537.36" etag="H1rXiRk4Wx86mMUKWusU" version="24.2.5" type="device">
  <diagram name="Page-1" id="rT9uFOjmLWiH90TD1_OQ">
    <mxGraphModel dx="3050" dy="1330" grid="1" gridSize="10" guides="1" tooltips="1" connect="1" arrows="1" fold="1" page="1" pageScale="1" pageWidth="850" pageHeight="1100" math="0" shadow="0">
      <root>
        <mxCell id="0" />
        <mxCell id="1" parent="0" />
        <mxCell id="vbyWSuQ11PQtbqBeCyKR-111" style="edgeStyle=orthogonalEdgeStyle;rounded=0;orthogonalLoop=1;jettySize=auto;html=1;exitX=0;exitY=0.5;exitDx=0;exitDy=0;entryX=0.5;entryY=0;entryDx=0;entryDy=0;endArrow=none;endFill=0;" edge="1" parent="1" source="vbyWSuQ11PQtbqBeCyKR-2" target="vbyWSuQ11PQtbqBeCyKR-110">
          <mxGeometry relative="1" as="geometry" />
        </mxCell>
        <mxCell id="vbyWSuQ11PQtbqBeCyKR-113" value="&lt;font style=&quot;font-size: 20px;&quot;&gt;1&lt;/font&gt;" style="edgeLabel;html=1;align=center;verticalAlign=middle;resizable=0;points=[];" vertex="1" connectable="0" parent="vbyWSuQ11PQtbqBeCyKR-111">
          <mxGeometry x="-0.8115" relative="1" as="geometry">
            <mxPoint as="offset" />
          </mxGeometry>
        </mxCell>
        <mxCell id="vbyWSuQ11PQtbqBeCyKR-2" value="&lt;font style=&quot;font-size: 20px;&quot;&gt;User&lt;/font&gt;" style="rounded=0;whiteSpace=wrap;html=1;fillColor=#f8cecc;strokeColor=#b85450;" vertex="1" parent="1">
          <mxGeometry x="190" y="210" width="100" height="40" as="geometry" />
        </mxCell>
        <mxCell id="vbyWSuQ11PQtbqBeCyKR-3" value="&lt;font style=&quot;font-size: 20px;&quot;&gt;&lt;u&gt;ID&lt;/u&gt;&lt;/font&gt;" style="ellipse;whiteSpace=wrap;html=1;fillColor=#d5e8d4;strokeColor=#82b366;" vertex="1" parent="1">
          <mxGeometry x="80" y="140" width="100" height="40" as="geometry" />
        </mxCell>
        <mxCell id="vbyWSuQ11PQtbqBeCyKR-4" value="&lt;font style=&quot;font-size: 20px;&quot;&gt;Name&lt;/font&gt;" style="ellipse;whiteSpace=wrap;html=1;fillColor=#d5e8d4;strokeColor=#82b366;" vertex="1" parent="1">
          <mxGeometry x="180" y="100" width="100" height="40" as="geometry" />
        </mxCell>
        <mxCell id="vbyWSuQ11PQtbqBeCyKR-5" value="&lt;font style=&quot;font-size: 20px;&quot;&gt;Email&lt;/font&gt;" style="ellipse;whiteSpace=wrap;html=1;fillColor=#d5e8d4;strokeColor=#82b366;" vertex="1" parent="1">
          <mxGeometry x="290" y="130" width="100" height="40" as="geometry" />
        </mxCell>
        <mxCell id="vbyWSuQ11PQtbqBeCyKR-6" value="&lt;font style=&quot;font-size: 20px;&quot;&gt;Phone&lt;/font&gt;" style="ellipse;whiteSpace=wrap;html=1;fillColor=#d5e8d4;strokeColor=#82b366;" vertex="1" parent="1">
          <mxGeometry x="370" y="290" width="100" height="40" as="geometry" />
        </mxCell>
        <mxCell id="vbyWSuQ11PQtbqBeCyKR-7" value="&lt;font style=&quot;font-size: 20px;&quot;&gt;Age&lt;/font&gt;" style="ellipse;whiteSpace=wrap;html=1;fillColor=#d5e8d4;strokeColor=#82b366;" vertex="1" parent="1">
          <mxGeometry x="60" y="300" width="100" height="40" as="geometry" />
        </mxCell>
        <mxCell id="vbyWSuQ11PQtbqBeCyKR-8" value="&lt;font style=&quot;font-size: 20px;&quot;&gt;Gender&lt;/font&gt;" style="ellipse;whiteSpace=wrap;html=1;fillColor=#d5e8d4;strokeColor=#82b366;" vertex="1" parent="1">
          <mxGeometry x="130" y="365" width="100" height="40" as="geometry" />
        </mxCell>
        <mxCell id="vbyWSuQ11PQtbqBeCyKR-11" value="" style="endArrow=none;html=1;rounded=0;entryX=0.5;entryY=1;entryDx=0;entryDy=0;exitX=0.5;exitY=0;exitDx=0;exitDy=0;" edge="1" parent="1" source="vbyWSuQ11PQtbqBeCyKR-2" target="vbyWSuQ11PQtbqBeCyKR-4">
          <mxGeometry width="50" height="50" relative="1" as="geometry">
            <mxPoint x="190" y="200" as="sourcePoint" />
            <mxPoint x="240" y="150" as="targetPoint" />
          </mxGeometry>
        </mxCell>
        <mxCell id="vbyWSuQ11PQtbqBeCyKR-12" value="" style="endArrow=none;html=1;rounded=0;entryX=1;entryY=1;entryDx=0;entryDy=0;exitX=0.25;exitY=0;exitDx=0;exitDy=0;" edge="1" parent="1" source="vbyWSuQ11PQtbqBeCyKR-2" target="vbyWSuQ11PQtbqBeCyKR-3">
          <mxGeometry width="50" height="50" relative="1" as="geometry">
            <mxPoint x="250" y="220" as="sourcePoint" />
            <mxPoint x="240" y="150" as="targetPoint" />
          </mxGeometry>
        </mxCell>
        <mxCell id="vbyWSuQ11PQtbqBeCyKR-13" value="" style="endArrow=none;html=1;rounded=0;entryX=1;entryY=0;entryDx=0;entryDy=0;exitX=0;exitY=1;exitDx=0;exitDy=0;" edge="1" parent="1" source="vbyWSuQ11PQtbqBeCyKR-2" target="vbyWSuQ11PQtbqBeCyKR-7">
          <mxGeometry width="50" height="50" relative="1" as="geometry">
            <mxPoint x="190" y="230" as="sourcePoint" />
            <mxPoint x="175" y="184" as="targetPoint" />
          </mxGeometry>
        </mxCell>
        <mxCell id="vbyWSuQ11PQtbqBeCyKR-14" value="" style="endArrow=none;html=1;rounded=0;exitX=0.25;exitY=1;exitDx=0;exitDy=0;" edge="1" parent="1" source="vbyWSuQ11PQtbqBeCyKR-2" target="vbyWSuQ11PQtbqBeCyKR-8">
          <mxGeometry width="50" height="50" relative="1" as="geometry">
            <mxPoint x="200" y="240" as="sourcePoint" />
            <mxPoint x="170" y="250" as="targetPoint" />
          </mxGeometry>
        </mxCell>
        <mxCell id="vbyWSuQ11PQtbqBeCyKR-15" value="" style="endArrow=none;html=1;rounded=0;exitX=1;exitY=1;exitDx=0;exitDy=0;entryX=0;entryY=0;entryDx=0;entryDy=0;" edge="1" parent="1" source="vbyWSuQ11PQtbqBeCyKR-2" target="vbyWSuQ11PQtbqBeCyKR-6">
          <mxGeometry width="50" height="50" relative="1" as="geometry">
            <mxPoint x="225" y="260" as="sourcePoint" />
            <mxPoint x="170" y="312" as="targetPoint" />
          </mxGeometry>
        </mxCell>
        <mxCell id="vbyWSuQ11PQtbqBeCyKR-16" value="" style="endArrow=none;html=1;rounded=0;exitX=0;exitY=1;exitDx=0;exitDy=0;entryX=0.75;entryY=0;entryDx=0;entryDy=0;" edge="1" parent="1" source="vbyWSuQ11PQtbqBeCyKR-5" target="vbyWSuQ11PQtbqBeCyKR-2">
          <mxGeometry width="50" height="50" relative="1" as="geometry">
            <mxPoint x="250" y="260" as="sourcePoint" />
            <mxPoint x="290" y="330" as="targetPoint" />
          </mxGeometry>
        </mxCell>
        <mxCell id="vbyWSuQ11PQtbqBeCyKR-38" style="edgeStyle=orthogonalEdgeStyle;rounded=0;orthogonalLoop=1;jettySize=auto;html=1;exitX=1;exitY=0.5;exitDx=0;exitDy=0;entryX=0;entryY=0.5;entryDx=0;entryDy=0;endArrow=none;endFill=0;" edge="1" parent="1" source="vbyWSuQ11PQtbqBeCyKR-17" target="vbyWSuQ11PQtbqBeCyKR-36">
          <mxGeometry relative="1" as="geometry" />
        </mxCell>
        <mxCell id="vbyWSuQ11PQtbqBeCyKR-40" value="&lt;font style=&quot;font-size: 20px;&quot;&gt;1&lt;/font&gt;" style="edgeLabel;html=1;align=center;verticalAlign=middle;resizable=0;points=[];" vertex="1" connectable="0" parent="vbyWSuQ11PQtbqBeCyKR-38">
          <mxGeometry x="-0.5714" y="-1" relative="1" as="geometry">
            <mxPoint as="offset" />
          </mxGeometry>
        </mxCell>
        <mxCell id="vbyWSuQ11PQtbqBeCyKR-86" style="edgeStyle=orthogonalEdgeStyle;rounded=0;orthogonalLoop=1;jettySize=auto;html=1;exitX=0.5;exitY=1;exitDx=0;exitDy=0;entryX=0.5;entryY=0;entryDx=0;entryDy=0;endArrow=none;endFill=0;" edge="1" parent="1" source="vbyWSuQ11PQtbqBeCyKR-17" target="vbyWSuQ11PQtbqBeCyKR-85">
          <mxGeometry relative="1" as="geometry" />
        </mxCell>
        <mxCell id="vbyWSuQ11PQtbqBeCyKR-88" value="&lt;font style=&quot;font-size: 20px;&quot;&gt;1&lt;/font&gt;" style="edgeLabel;html=1;align=center;verticalAlign=middle;resizable=0;points=[];" vertex="1" connectable="0" parent="vbyWSuQ11PQtbqBeCyKR-86">
          <mxGeometry x="-0.5825" y="-1" relative="1" as="geometry">
            <mxPoint as="offset" />
          </mxGeometry>
        </mxCell>
        <mxCell id="vbyWSuQ11PQtbqBeCyKR-17" value="&lt;font style=&quot;font-size: 20px;&quot;&gt;Hotel&lt;/font&gt;" style="rounded=0;whiteSpace=wrap;html=1;fillColor=#f8cecc;strokeColor=#b85450;" vertex="1" parent="1">
          <mxGeometry x="660" y="525" width="100" height="40" as="geometry" />
        </mxCell>
        <mxCell id="vbyWSuQ11PQtbqBeCyKR-18" value="&lt;font style=&quot;font-size: 20px;&quot;&gt;&lt;u&gt;ID&lt;/u&gt;&lt;/font&gt;" style="ellipse;whiteSpace=wrap;html=1;fillColor=#d5e8d4;strokeColor=#82b366;" vertex="1" parent="1">
          <mxGeometry x="590" y="445" width="100" height="40" as="geometry" />
        </mxCell>
        <mxCell id="vbyWSuQ11PQtbqBeCyKR-19" value="&lt;font style=&quot;font-size: 20px;&quot;&gt;Name&lt;/font&gt;" style="ellipse;whiteSpace=wrap;html=1;fillColor=#d5e8d4;strokeColor=#82b366;" vertex="1" parent="1">
          <mxGeometry x="750" y="380" width="100" height="40" as="geometry" />
        </mxCell>
        <mxCell id="vbyWSuQ11PQtbqBeCyKR-20" value="&lt;font style=&quot;font-size: 20px;&quot;&gt;Description&lt;/font&gt;" style="ellipse;whiteSpace=wrap;html=1;fillColor=#d5e8d4;strokeColor=#82b366;" vertex="1" parent="1">
          <mxGeometry x="770" y="620" width="120" height="60" as="geometry" />
        </mxCell>
        <mxCell id="vbyWSuQ11PQtbqBeCyKR-22" value="" style="endArrow=none;html=1;rounded=0;exitX=0.25;exitY=0;exitDx=0;exitDy=0;entryX=1;entryY=1;entryDx=0;entryDy=0;" edge="1" parent="1" source="vbyWSuQ11PQtbqBeCyKR-17" target="vbyWSuQ11PQtbqBeCyKR-18">
          <mxGeometry width="50" height="50" relative="1" as="geometry">
            <mxPoint x="425" y="469" as="sourcePoint" />
            <mxPoint x="385" y="515" as="targetPoint" />
          </mxGeometry>
        </mxCell>
        <mxCell id="vbyWSuQ11PQtbqBeCyKR-23" value="" style="endArrow=none;html=1;rounded=0;exitX=0.75;exitY=0;exitDx=0;exitDy=0;entryX=0.5;entryY=1;entryDx=0;entryDy=0;" edge="1" parent="1" source="vbyWSuQ11PQtbqBeCyKR-17" target="vbyWSuQ11PQtbqBeCyKR-19">
          <mxGeometry width="50" height="50" relative="1" as="geometry">
            <mxPoint x="695" y="535" as="sourcePoint" />
            <mxPoint x="670" y="469" as="targetPoint" />
          </mxGeometry>
        </mxCell>
        <mxCell id="vbyWSuQ11PQtbqBeCyKR-24" value="" style="endArrow=none;html=1;rounded=0;exitX=0.75;exitY=1;exitDx=0;exitDy=0;entryX=0.5;entryY=0;entryDx=0;entryDy=0;" edge="1" parent="1" source="vbyWSuQ11PQtbqBeCyKR-17" target="vbyWSuQ11PQtbqBeCyKR-20">
          <mxGeometry width="50" height="50" relative="1" as="geometry">
            <mxPoint x="745" y="535" as="sourcePoint" />
            <mxPoint x="785" y="479" as="targetPoint" />
          </mxGeometry>
        </mxCell>
        <mxCell id="vbyWSuQ11PQtbqBeCyKR-26" value="&lt;font style=&quot;font-size: 20px;&quot;&gt;Address&lt;/font&gt;" style="rounded=0;whiteSpace=wrap;html=1;fillColor=#f8cecc;strokeColor=#b85450;" vertex="1" parent="1">
          <mxGeometry x="1085" y="525" width="120" height="40" as="geometry" />
        </mxCell>
        <mxCell id="vbyWSuQ11PQtbqBeCyKR-27" value="&lt;font style=&quot;font-size: 20px;&quot;&gt;BuildingNo&lt;/font&gt;" style="ellipse;whiteSpace=wrap;html=1;fillColor=#d5e8d4;strokeColor=#82b366;" vertex="1" parent="1">
          <mxGeometry x="1130" y="405" width="150" height="40" as="geometry" />
        </mxCell>
        <mxCell id="vbyWSuQ11PQtbqBeCyKR-28" value="&lt;font style=&quot;font-size: 20px;&quot;&gt;StreetNoAndName&lt;/font&gt;" style="ellipse;whiteSpace=wrap;html=1;fillColor=#d5e8d4;strokeColor=#82b366;" vertex="1" parent="1">
          <mxGeometry x="1040" y="625" width="210" height="50" as="geometry" />
        </mxCell>
        <mxCell id="vbyWSuQ11PQtbqBeCyKR-29" value="&lt;font style=&quot;font-size: 20px;&quot;&gt;City&lt;/font&gt;" style="ellipse;whiteSpace=wrap;html=1;fillColor=#d5e8d4;strokeColor=#82b366;" vertex="1" parent="1">
          <mxGeometry x="1255" y="565" width="80" height="45" as="geometry" />
        </mxCell>
        <mxCell id="vbyWSuQ11PQtbqBeCyKR-30" value="&lt;font style=&quot;font-size: 20px;&quot;&gt;State&lt;/font&gt;" style="ellipse;whiteSpace=wrap;html=1;fillColor=#d5e8d4;strokeColor=#82b366;" vertex="1" parent="1">
          <mxGeometry x="1265" y="465" width="80" height="45" as="geometry" />
        </mxCell>
        <mxCell id="vbyWSuQ11PQtbqBeCyKR-32" value="" style="endArrow=none;html=1;rounded=0;exitX=0.75;exitY=0;exitDx=0;exitDy=0;entryX=0.5;entryY=1;entryDx=0;entryDy=0;" edge="1" parent="1" source="vbyWSuQ11PQtbqBeCyKR-26" target="vbyWSuQ11PQtbqBeCyKR-27">
          <mxGeometry width="50" height="50" relative="1" as="geometry">
            <mxPoint x="780" y="535" as="sourcePoint" />
            <mxPoint x="815" y="489" as="targetPoint" />
          </mxGeometry>
        </mxCell>
        <mxCell id="vbyWSuQ11PQtbqBeCyKR-33" value="" style="endArrow=none;html=1;rounded=0;exitX=1;exitY=0.25;exitDx=0;exitDy=0;entryX=0;entryY=1;entryDx=0;entryDy=0;" edge="1" parent="1" source="vbyWSuQ11PQtbqBeCyKR-26" target="vbyWSuQ11PQtbqBeCyKR-30">
          <mxGeometry width="50" height="50" relative="1" as="geometry">
            <mxPoint x="1149" y="533" as="sourcePoint" />
            <mxPoint x="1140" y="475" as="targetPoint" />
          </mxGeometry>
        </mxCell>
        <mxCell id="vbyWSuQ11PQtbqBeCyKR-34" value="" style="endArrow=none;html=1;rounded=0;exitX=1;exitY=0.75;exitDx=0;exitDy=0;entryX=0;entryY=0;entryDx=0;entryDy=0;" edge="1" parent="1" source="vbyWSuQ11PQtbqBeCyKR-26" target="vbyWSuQ11PQtbqBeCyKR-29">
          <mxGeometry width="50" height="50" relative="1" as="geometry">
            <mxPoint x="1215" y="545" as="sourcePoint" />
            <mxPoint x="1286" y="513" as="targetPoint" />
          </mxGeometry>
        </mxCell>
        <mxCell id="vbyWSuQ11PQtbqBeCyKR-35" value="" style="endArrow=none;html=1;rounded=0;exitX=0.5;exitY=1;exitDx=0;exitDy=0;entryX=0.5;entryY=0;entryDx=0;entryDy=0;" edge="1" parent="1" source="vbyWSuQ11PQtbqBeCyKR-26" target="vbyWSuQ11PQtbqBeCyKR-28">
          <mxGeometry width="50" height="50" relative="1" as="geometry">
            <mxPoint x="1215" y="565" as="sourcePoint" />
            <mxPoint x="1276" y="582" as="targetPoint" />
          </mxGeometry>
        </mxCell>
        <mxCell id="vbyWSuQ11PQtbqBeCyKR-39" style="edgeStyle=orthogonalEdgeStyle;rounded=0;orthogonalLoop=1;jettySize=auto;html=1;exitX=1;exitY=0.5;exitDx=0;exitDy=0;entryX=0;entryY=0.5;entryDx=0;entryDy=0;endArrow=none;endFill=0;" edge="1" parent="1" source="vbyWSuQ11PQtbqBeCyKR-36" target="vbyWSuQ11PQtbqBeCyKR-26">
          <mxGeometry relative="1" as="geometry" />
        </mxCell>
        <mxCell id="vbyWSuQ11PQtbqBeCyKR-41" value="&lt;font style=&quot;font-size: 20px;&quot;&gt;1&lt;/font&gt;" style="edgeLabel;html=1;align=center;verticalAlign=middle;resizable=0;points=[];" vertex="1" connectable="0" parent="vbyWSuQ11PQtbqBeCyKR-39">
          <mxGeometry x="0.1775" relative="1" as="geometry">
            <mxPoint as="offset" />
          </mxGeometry>
        </mxCell>
        <mxCell id="vbyWSuQ11PQtbqBeCyKR-36" value="&lt;font style=&quot;font-size: 20px;&quot;&gt;IsAt&lt;/font&gt;" style="rhombus;whiteSpace=wrap;html=1;fillColor=#fad7ac;strokeColor=#b46504;" vertex="1" parent="1">
          <mxGeometry x="900" y="505" width="80" height="80" as="geometry" />
        </mxCell>
        <mxCell id="vbyWSuQ11PQtbqBeCyKR-42" value="&lt;font style=&quot;font-size: 20px;&quot;&gt;&lt;u&gt;ID&lt;/u&gt;&lt;/font&gt;" style="ellipse;whiteSpace=wrap;html=1;fillColor=#d5e8d4;strokeColor=#82b366;" vertex="1" parent="1">
          <mxGeometry x="1000" y="435" width="100" height="40" as="geometry" />
        </mxCell>
        <mxCell id="vbyWSuQ11PQtbqBeCyKR-43" value="" style="endArrow=none;html=1;rounded=0;exitX=0.25;exitY=0;exitDx=0;exitDy=0;entryX=1;entryY=1;entryDx=0;entryDy=0;" edge="1" parent="1" source="vbyWSuQ11PQtbqBeCyKR-26" target="vbyWSuQ11PQtbqBeCyKR-42">
          <mxGeometry width="50" height="50" relative="1" as="geometry">
            <mxPoint x="1185" y="535" as="sourcePoint" />
            <mxPoint x="1215" y="455" as="targetPoint" />
          </mxGeometry>
        </mxCell>
        <mxCell id="vbyWSuQ11PQtbqBeCyKR-45" value="&lt;font style=&quot;font-size: 20px;&quot;&gt;Rating&lt;/font&gt;" style="rounded=0;whiteSpace=wrap;html=1;fillColor=#f8cecc;strokeColor=#b85450;" vertex="1" parent="1">
          <mxGeometry x="340" y="525" width="100" height="40" as="geometry" />
        </mxCell>
        <mxCell id="vbyWSuQ11PQtbqBeCyKR-46" value="&lt;font style=&quot;font-size: 20px;&quot;&gt;&lt;u&gt;ID&lt;/u&gt;&lt;/font&gt;" style="ellipse;whiteSpace=wrap;html=1;fillColor=#d5e8d4;strokeColor=#82b366;" vertex="1" parent="1">
          <mxGeometry x="340" y="445" width="100" height="40" as="geometry" />
        </mxCell>
        <mxCell id="vbyWSuQ11PQtbqBeCyKR-47" value="&lt;font style=&quot;font-size: 20px;&quot;&gt;Star&lt;/font&gt;" style="ellipse;whiteSpace=wrap;html=1;fillColor=#d5e8d4;strokeColor=#82b366;" vertex="1" parent="1">
          <mxGeometry x="340" y="605" width="100" height="40" as="geometry" />
        </mxCell>
        <mxCell id="vbyWSuQ11PQtbqBeCyKR-50" value="" style="endArrow=none;html=1;rounded=0;exitX=0.5;exitY=0;exitDx=0;exitDy=0;entryX=0.5;entryY=1;entryDx=0;entryDy=0;" edge="1" source="vbyWSuQ11PQtbqBeCyKR-45" target="vbyWSuQ11PQtbqBeCyKR-46" parent="1">
          <mxGeometry width="50" height="50" relative="1" as="geometry">
            <mxPoint x="105" y="469" as="sourcePoint" />
            <mxPoint x="65" y="515" as="targetPoint" />
          </mxGeometry>
        </mxCell>
        <mxCell id="vbyWSuQ11PQtbqBeCyKR-51" value="" style="endArrow=none;html=1;rounded=0;exitX=0.5;exitY=1;exitDx=0;exitDy=0;entryX=0.5;entryY=0;entryDx=0;entryDy=0;" edge="1" source="vbyWSuQ11PQtbqBeCyKR-45" target="vbyWSuQ11PQtbqBeCyKR-47" parent="1">
          <mxGeometry width="50" height="50" relative="1" as="geometry">
            <mxPoint x="375" y="535" as="sourcePoint" />
            <mxPoint x="350" y="469" as="targetPoint" />
          </mxGeometry>
        </mxCell>
        <mxCell id="vbyWSuQ11PQtbqBeCyKR-55" style="edgeStyle=orthogonalEdgeStyle;rounded=0;orthogonalLoop=1;jettySize=auto;html=1;exitX=1;exitY=0.5;exitDx=0;exitDy=0;entryX=0;entryY=0.5;entryDx=0;entryDy=0;endArrow=none;endFill=0;" edge="1" parent="1" source="vbyWSuQ11PQtbqBeCyKR-54" target="vbyWSuQ11PQtbqBeCyKR-17">
          <mxGeometry relative="1" as="geometry" />
        </mxCell>
        <mxCell id="vbyWSuQ11PQtbqBeCyKR-57" value="&lt;font style=&quot;font-size: 20px;&quot;&gt;1&lt;/font&gt;" style="edgeLabel;html=1;align=center;verticalAlign=middle;resizable=0;points=[];" vertex="1" connectable="0" parent="vbyWSuQ11PQtbqBeCyKR-55">
          <mxGeometry x="0.3" y="-2" relative="1" as="geometry">
            <mxPoint as="offset" />
          </mxGeometry>
        </mxCell>
        <mxCell id="vbyWSuQ11PQtbqBeCyKR-56" style="edgeStyle=orthogonalEdgeStyle;rounded=0;orthogonalLoop=1;jettySize=auto;html=1;exitX=0;exitY=0.5;exitDx=0;exitDy=0;endArrow=none;endFill=0;" edge="1" parent="1" source="vbyWSuQ11PQtbqBeCyKR-54" target="vbyWSuQ11PQtbqBeCyKR-45">
          <mxGeometry relative="1" as="geometry" />
        </mxCell>
        <mxCell id="vbyWSuQ11PQtbqBeCyKR-58" value="&lt;font style=&quot;font-size: 20px;&quot;&gt;M&lt;/font&gt;" style="edgeLabel;html=1;align=center;verticalAlign=middle;resizable=0;points=[];" vertex="1" connectable="0" parent="vbyWSuQ11PQtbqBeCyKR-56">
          <mxGeometry x="0.5167" relative="1" as="geometry">
            <mxPoint as="offset" />
          </mxGeometry>
        </mxCell>
        <mxCell id="vbyWSuQ11PQtbqBeCyKR-54" value="&lt;font style=&quot;font-size: 20px;&quot;&gt;Has&lt;/font&gt;" style="rhombus;whiteSpace=wrap;html=1;fillColor=#fad7ac;strokeColor=#b46504;" vertex="1" parent="1">
          <mxGeometry x="500" y="505" width="80" height="80" as="geometry" />
        </mxCell>
        <mxCell id="vbyWSuQ11PQtbqBeCyKR-59" value="&lt;font style=&quot;font-size: 20px;&quot;&gt;Review&lt;/font&gt;" style="rounded=0;whiteSpace=wrap;html=1;fillColor=#f8cecc;strokeColor=#b85450;" vertex="1" parent="1">
          <mxGeometry x="660" y="210" width="100" height="40" as="geometry" />
        </mxCell>
        <mxCell id="vbyWSuQ11PQtbqBeCyKR-60" value="&lt;font style=&quot;font-size: 20px;&quot;&gt;&lt;u&gt;ID&lt;/u&gt;&lt;/font&gt;" style="ellipse;whiteSpace=wrap;html=1;fillColor=#d5e8d4;strokeColor=#82b366;" vertex="1" parent="1">
          <mxGeometry x="580" y="130" width="100" height="40" as="geometry" />
        </mxCell>
        <mxCell id="vbyWSuQ11PQtbqBeCyKR-61" value="&lt;span style=&quot;font-size: 20px;&quot;&gt;Content&lt;/span&gt;" style="ellipse;whiteSpace=wrap;html=1;fillColor=#d5e8d4;strokeColor=#82b366;" vertex="1" parent="1">
          <mxGeometry x="750" y="130" width="100" height="40" as="geometry" />
        </mxCell>
        <mxCell id="vbyWSuQ11PQtbqBeCyKR-62" value="" style="endArrow=none;html=1;rounded=0;exitX=0.25;exitY=0;exitDx=0;exitDy=0;entryX=1;entryY=1;entryDx=0;entryDy=0;" edge="1" parent="1" source="vbyWSuQ11PQtbqBeCyKR-59" target="vbyWSuQ11PQtbqBeCyKR-60">
          <mxGeometry width="50" height="50" relative="1" as="geometry">
            <mxPoint x="695" y="475" as="sourcePoint" />
            <mxPoint x="685" y="429" as="targetPoint" />
          </mxGeometry>
        </mxCell>
        <mxCell id="vbyWSuQ11PQtbqBeCyKR-63" value="" style="endArrow=none;html=1;rounded=0;exitX=0.75;exitY=0;exitDx=0;exitDy=0;entryX=0;entryY=1;entryDx=0;entryDy=0;" edge="1" parent="1" source="vbyWSuQ11PQtbqBeCyKR-59" target="vbyWSuQ11PQtbqBeCyKR-61">
          <mxGeometry width="50" height="50" relative="1" as="geometry">
            <mxPoint x="695" y="220" as="sourcePoint" />
            <mxPoint x="675" y="174" as="targetPoint" />
          </mxGeometry>
        </mxCell>
        <mxCell id="vbyWSuQ11PQtbqBeCyKR-65" style="edgeStyle=orthogonalEdgeStyle;rounded=0;orthogonalLoop=1;jettySize=auto;html=1;exitX=0.5;exitY=0;exitDx=0;exitDy=0;endArrow=none;endFill=0;" edge="1" parent="1" source="vbyWSuQ11PQtbqBeCyKR-64" target="vbyWSuQ11PQtbqBeCyKR-59">
          <mxGeometry relative="1" as="geometry" />
        </mxCell>
        <mxCell id="vbyWSuQ11PQtbqBeCyKR-67" value="&lt;font style=&quot;font-size: 20px;&quot;&gt;M&lt;/font&gt;" style="edgeLabel;html=1;align=center;verticalAlign=middle;resizable=0;points=[];" vertex="1" connectable="0" parent="vbyWSuQ11PQtbqBeCyKR-65">
          <mxGeometry x="0.2727" y="1" relative="1" as="geometry">
            <mxPoint y="-1" as="offset" />
          </mxGeometry>
        </mxCell>
        <mxCell id="vbyWSuQ11PQtbqBeCyKR-66" style="edgeStyle=orthogonalEdgeStyle;rounded=0;orthogonalLoop=1;jettySize=auto;html=1;exitX=0.5;exitY=1;exitDx=0;exitDy=0;endArrow=none;endFill=0;" edge="1" parent="1" source="vbyWSuQ11PQtbqBeCyKR-64" target="vbyWSuQ11PQtbqBeCyKR-17">
          <mxGeometry relative="1" as="geometry" />
        </mxCell>
        <mxCell id="vbyWSuQ11PQtbqBeCyKR-68" value="&lt;font style=&quot;font-size: 20px;&quot;&gt;1&lt;/font&gt;" style="edgeLabel;html=1;align=center;verticalAlign=middle;resizable=0;points=[];" vertex="1" connectable="0" parent="vbyWSuQ11PQtbqBeCyKR-66">
          <mxGeometry x="0.4796" y="2" relative="1" as="geometry">
            <mxPoint y="-1" as="offset" />
          </mxGeometry>
        </mxCell>
        <mxCell id="vbyWSuQ11PQtbqBeCyKR-64" value="&lt;font style=&quot;font-size: 20px;&quot;&gt;Has&lt;/font&gt;" style="rhombus;whiteSpace=wrap;html=1;fillColor=#fad7ac;strokeColor=#b46504;" vertex="1" parent="1">
          <mxGeometry x="670" y="305" width="80" height="80" as="geometry" />
        </mxCell>
        <mxCell id="vbyWSuQ11PQtbqBeCyKR-70" style="edgeStyle=orthogonalEdgeStyle;rounded=0;orthogonalLoop=1;jettySize=auto;html=1;exitX=1;exitY=0.5;exitDx=0;exitDy=0;entryX=0;entryY=0.5;entryDx=0;entryDy=0;endArrow=none;endFill=0;" edge="1" parent="1" source="vbyWSuQ11PQtbqBeCyKR-69" target="vbyWSuQ11PQtbqBeCyKR-59">
          <mxGeometry relative="1" as="geometry" />
        </mxCell>
        <mxCell id="vbyWSuQ11PQtbqBeCyKR-72" value="&lt;font style=&quot;font-size: 20px;&quot;&gt;M&lt;/font&gt;" style="edgeLabel;html=1;align=center;verticalAlign=middle;resizable=0;points=[];" vertex="1" connectable="0" parent="vbyWSuQ11PQtbqBeCyKR-70">
          <mxGeometry x="0.5206" relative="1" as="geometry">
            <mxPoint as="offset" />
          </mxGeometry>
        </mxCell>
        <mxCell id="vbyWSuQ11PQtbqBeCyKR-71" style="edgeStyle=orthogonalEdgeStyle;rounded=0;orthogonalLoop=1;jettySize=auto;html=1;exitX=0;exitY=0.5;exitDx=0;exitDy=0;entryX=1;entryY=0.5;entryDx=0;entryDy=0;endArrow=none;endFill=0;" edge="1" parent="1" source="vbyWSuQ11PQtbqBeCyKR-69" target="vbyWSuQ11PQtbqBeCyKR-2">
          <mxGeometry relative="1" as="geometry" />
        </mxCell>
        <mxCell id="vbyWSuQ11PQtbqBeCyKR-73" value="&lt;font style=&quot;font-size: 20px;&quot;&gt;1&lt;/font&gt;" style="edgeLabel;html=1;align=center;verticalAlign=middle;resizable=0;points=[];" vertex="1" connectable="0" parent="vbyWSuQ11PQtbqBeCyKR-71">
          <mxGeometry x="0.3956" relative="1" as="geometry">
            <mxPoint as="offset" />
          </mxGeometry>
        </mxCell>
        <mxCell id="vbyWSuQ11PQtbqBeCyKR-69" value="&lt;font style=&quot;font-size: 20px;&quot;&gt;Gives&lt;/font&gt;" style="rhombus;whiteSpace=wrap;html=1;fillColor=#fad7ac;strokeColor=#b46504;" vertex="1" parent="1">
          <mxGeometry x="440" y="190" width="80" height="80" as="geometry" />
        </mxCell>
        <mxCell id="vbyWSuQ11PQtbqBeCyKR-75" style="edgeStyle=orthogonalEdgeStyle;rounded=0;orthogonalLoop=1;jettySize=auto;html=1;exitX=1;exitY=0.5;exitDx=0;exitDy=0;entryX=0;entryY=0.5;entryDx=0;entryDy=0;endArrow=none;endFill=0;" edge="1" parent="1" source="vbyWSuQ11PQtbqBeCyKR-74" target="vbyWSuQ11PQtbqBeCyKR-45">
          <mxGeometry relative="1" as="geometry" />
        </mxCell>
        <mxCell id="vbyWSuQ11PQtbqBeCyKR-77" value="&lt;font style=&quot;font-size: 20px;&quot;&gt;M&lt;/font&gt;" style="edgeLabel;html=1;align=center;verticalAlign=middle;resizable=0;points=[];" vertex="1" connectable="0" parent="vbyWSuQ11PQtbqBeCyKR-75">
          <mxGeometry x="0.3431" relative="1" as="geometry">
            <mxPoint as="offset" />
          </mxGeometry>
        </mxCell>
        <mxCell id="vbyWSuQ11PQtbqBeCyKR-76" style="edgeStyle=orthogonalEdgeStyle;rounded=0;orthogonalLoop=1;jettySize=auto;html=1;exitX=0.5;exitY=0;exitDx=0;exitDy=0;entryX=0.5;entryY=1;entryDx=0;entryDy=0;endArrow=none;endFill=0;" edge="1" parent="1" source="vbyWSuQ11PQtbqBeCyKR-74" target="vbyWSuQ11PQtbqBeCyKR-2">
          <mxGeometry relative="1" as="geometry" />
        </mxCell>
        <mxCell id="vbyWSuQ11PQtbqBeCyKR-78" value="&lt;font style=&quot;font-size: 20px;&quot;&gt;1&lt;/font&gt;" style="edgeLabel;html=1;align=center;verticalAlign=middle;resizable=0;points=[];" vertex="1" connectable="0" parent="vbyWSuQ11PQtbqBeCyKR-76">
          <mxGeometry x="0.8302" y="1" relative="1" as="geometry">
            <mxPoint as="offset" />
          </mxGeometry>
        </mxCell>
        <mxCell id="vbyWSuQ11PQtbqBeCyKR-74" value="&lt;font style=&quot;font-size: 20px;&quot;&gt;Gives&lt;/font&gt;" style="rhombus;whiteSpace=wrap;html=1;fillColor=#fad7ac;strokeColor=#b46504;" vertex="1" parent="1">
          <mxGeometry x="200" y="505" width="80" height="80" as="geometry" />
        </mxCell>
        <mxCell id="vbyWSuQ11PQtbqBeCyKR-79" value="&lt;font style=&quot;font-size: 20px;&quot;&gt;Room&lt;/font&gt;" style="rounded=0;whiteSpace=wrap;html=1;fillColor=#f8cecc;strokeColor=#b85450;" vertex="1" parent="1">
          <mxGeometry x="660" y="820" width="100" height="40" as="geometry" />
        </mxCell>
        <mxCell id="vbyWSuQ11PQtbqBeCyKR-80" value="&lt;font style=&quot;font-size: 20px;&quot;&gt;&lt;u&gt;ID&lt;/u&gt;&lt;/font&gt;" style="ellipse;whiteSpace=wrap;html=1;fillColor=#d5e8d4;strokeColor=#82b366;" vertex="1" parent="1">
          <mxGeometry x="522.5" y="730" width="100" height="40" as="geometry" />
        </mxCell>
        <mxCell id="vbyWSuQ11PQtbqBeCyKR-82" value="&lt;font style=&quot;font-size: 20px;&quot;&gt;Size&lt;/font&gt;" style="ellipse;whiteSpace=wrap;html=1;fillColor=#d5e8d4;strokeColor=#82b366;" vertex="1" parent="1">
          <mxGeometry x="820" y="870" width="90" height="50" as="geometry" />
        </mxCell>
        <mxCell id="vbyWSuQ11PQtbqBeCyKR-83" value="" style="endArrow=none;html=1;rounded=0;exitX=1;exitY=1;exitDx=0;exitDy=0;entryX=0.25;entryY=0;entryDx=0;entryDy=0;" edge="1" parent="1" source="vbyWSuQ11PQtbqBeCyKR-80" target="vbyWSuQ11PQtbqBeCyKR-79">
          <mxGeometry width="50" height="50" relative="1" as="geometry">
            <mxPoint x="750" y="800" as="sourcePoint" />
            <mxPoint x="800" y="750" as="targetPoint" />
          </mxGeometry>
        </mxCell>
        <mxCell id="vbyWSuQ11PQtbqBeCyKR-84" value="" style="endArrow=none;html=1;rounded=0;exitX=1;exitY=0.5;exitDx=0;exitDy=0;entryX=0;entryY=0.5;entryDx=0;entryDy=0;" edge="1" parent="1" source="vbyWSuQ11PQtbqBeCyKR-79" target="vbyWSuQ11PQtbqBeCyKR-82">
          <mxGeometry width="50" height="50" relative="1" as="geometry">
            <mxPoint x="620" y="850" as="sourcePoint" />
            <mxPoint x="670" y="850" as="targetPoint" />
          </mxGeometry>
        </mxCell>
        <mxCell id="vbyWSuQ11PQtbqBeCyKR-87" style="edgeStyle=orthogonalEdgeStyle;rounded=0;orthogonalLoop=1;jettySize=auto;html=1;exitX=0.5;exitY=1;exitDx=0;exitDy=0;endArrow=none;endFill=0;" edge="1" parent="1" source="vbyWSuQ11PQtbqBeCyKR-85" target="vbyWSuQ11PQtbqBeCyKR-79">
          <mxGeometry relative="1" as="geometry" />
        </mxCell>
        <mxCell id="vbyWSuQ11PQtbqBeCyKR-89" value="&lt;font style=&quot;font-size: 20px;&quot;&gt;M&lt;/font&gt;" style="edgeLabel;html=1;align=center;verticalAlign=middle;resizable=0;points=[];" vertex="1" connectable="0" parent="vbyWSuQ11PQtbqBeCyKR-87">
          <mxGeometry x="0.354" y="-1" relative="1" as="geometry">
            <mxPoint as="offset" />
          </mxGeometry>
        </mxCell>
        <mxCell id="vbyWSuQ11PQtbqBeCyKR-85" value="&lt;font style=&quot;font-size: 20px;&quot;&gt;In&lt;/font&gt;" style="rhombus;whiteSpace=wrap;html=1;fillColor=#fad7ac;strokeColor=#b46504;" vertex="1" parent="1">
          <mxGeometry x="675" y="690" width="70" height="70" as="geometry" />
        </mxCell>
        <mxCell id="vbyWSuQ11PQtbqBeCyKR-90" value="&lt;font style=&quot;font-size: 20px;&quot;&gt;PricePerNight&lt;/font&gt;" style="ellipse;whiteSpace=wrap;html=1;fillColor=#d5e8d4;strokeColor=#82b366;" vertex="1" parent="1">
          <mxGeometry x="622.5" y="920" width="175" height="60" as="geometry" />
        </mxCell>
        <mxCell id="vbyWSuQ11PQtbqBeCyKR-91" value="" style="endArrow=none;html=1;rounded=0;exitX=0.5;exitY=0;exitDx=0;exitDy=0;entryX=0.5;entryY=1;entryDx=0;entryDy=0;" edge="1" parent="1" source="vbyWSuQ11PQtbqBeCyKR-90" target="vbyWSuQ11PQtbqBeCyKR-79">
          <mxGeometry width="50" height="50" relative="1" as="geometry">
            <mxPoint x="720" y="830" as="sourcePoint" />
            <mxPoint x="770" y="780" as="targetPoint" />
          </mxGeometry>
        </mxCell>
        <mxCell id="vbyWSuQ11PQtbqBeCyKR-92" value="&lt;font style=&quot;font-size: 20px;&quot;&gt;Phone&lt;/font&gt;" style="ellipse;whiteSpace=wrap;html=1;fillColor=#d5e8d4;strokeColor=#82b366;" vertex="1" parent="1">
          <mxGeometry x="530" y="610" width="80" height="50" as="geometry" />
        </mxCell>
        <mxCell id="vbyWSuQ11PQtbqBeCyKR-93" value="&lt;font style=&quot;font-size: 20px;&quot;&gt;Email&lt;/font&gt;" style="ellipse;whiteSpace=wrap;html=1;fillColor=#d5e8d4;strokeColor=#82b366;" vertex="1" parent="1">
          <mxGeometry x="595" y="660" width="80" height="50" as="geometry" />
        </mxCell>
        <mxCell id="vbyWSuQ11PQtbqBeCyKR-94" value="" style="endArrow=none;html=1;rounded=0;exitX=1;exitY=0;exitDx=0;exitDy=0;entryX=0;entryY=1;entryDx=0;entryDy=0;" edge="1" parent="1" source="vbyWSuQ11PQtbqBeCyKR-92" target="vbyWSuQ11PQtbqBeCyKR-17">
          <mxGeometry width="50" height="50" relative="1" as="geometry">
            <mxPoint x="695" y="535" as="sourcePoint" />
            <mxPoint x="685" y="489" as="targetPoint" />
          </mxGeometry>
        </mxCell>
        <mxCell id="vbyWSuQ11PQtbqBeCyKR-95" value="" style="endArrow=none;html=1;rounded=0;exitX=0.5;exitY=0;exitDx=0;exitDy=0;entryX=0.25;entryY=1;entryDx=0;entryDy=0;" edge="1" parent="1" source="vbyWSuQ11PQtbqBeCyKR-93" target="vbyWSuQ11PQtbqBeCyKR-17">
          <mxGeometry width="50" height="50" relative="1" as="geometry">
            <mxPoint x="609" y="628" as="sourcePoint" />
            <mxPoint x="670" y="575" as="targetPoint" />
          </mxGeometry>
        </mxCell>
        <mxCell id="vbyWSuQ11PQtbqBeCyKR-119" style="edgeStyle=orthogonalEdgeStyle;rounded=0;orthogonalLoop=1;jettySize=auto;html=1;exitX=1;exitY=0.5;exitDx=0;exitDy=0;entryX=0;entryY=0.5;entryDx=0;entryDy=0;endArrow=none;endFill=0;" edge="1" parent="1" source="vbyWSuQ11PQtbqBeCyKR-97" target="vbyWSuQ11PQtbqBeCyKR-117">
          <mxGeometry relative="1" as="geometry" />
        </mxCell>
        <mxCell id="vbyWSuQ11PQtbqBeCyKR-120" value="&lt;font style=&quot;font-size: 20px;&quot;&gt;M&lt;/font&gt;" style="edgeLabel;html=1;align=center;verticalAlign=middle;resizable=0;points=[];" vertex="1" connectable="0" parent="vbyWSuQ11PQtbqBeCyKR-119">
          <mxGeometry x="-0.7973" relative="1" as="geometry">
            <mxPoint x="1" as="offset" />
          </mxGeometry>
        </mxCell>
        <mxCell id="vbyWSuQ11PQtbqBeCyKR-97" value="&lt;font style=&quot;font-size: 20px;&quot;&gt;Booking&lt;/font&gt;" style="rounded=0;whiteSpace=wrap;html=1;fillColor=#f8cecc;strokeColor=#b85450;" vertex="1" parent="1">
          <mxGeometry x="-80" y="820" width="100" height="40" as="geometry" />
        </mxCell>
        <mxCell id="vbyWSuQ11PQtbqBeCyKR-98" value="&lt;font style=&quot;font-size: 20px;&quot;&gt;&lt;u&gt;ID&lt;/u&gt;&lt;/font&gt;" style="ellipse;whiteSpace=wrap;html=1;fillColor=#d5e8d4;strokeColor=#82b366;" vertex="1" parent="1">
          <mxGeometry x="-150" y="650" width="100" height="40" as="geometry" />
        </mxCell>
        <mxCell id="vbyWSuQ11PQtbqBeCyKR-99" value="" style="endArrow=none;html=1;rounded=0;entryX=1;entryY=1;entryDx=0;entryDy=0;exitX=0.25;exitY=0;exitDx=0;exitDy=0;" edge="1" parent="1" source="vbyWSuQ11PQtbqBeCyKR-97" target="vbyWSuQ11PQtbqBeCyKR-98">
          <mxGeometry width="50" height="50" relative="1" as="geometry">
            <mxPoint x="30" y="835" as="sourcePoint" />
            <mxPoint x="80" y="785" as="targetPoint" />
          </mxGeometry>
        </mxCell>
        <mxCell id="vbyWSuQ11PQtbqBeCyKR-101" value="&lt;font style=&quot;font-size: 20px;&quot;&gt;DateOfBooking&lt;/font&gt;" style="ellipse;whiteSpace=wrap;html=1;fillColor=#d5e8d4;strokeColor=#82b366;" vertex="1" parent="1">
          <mxGeometry x="-290" y="720" width="190" height="42.5" as="geometry" />
        </mxCell>
        <mxCell id="vbyWSuQ11PQtbqBeCyKR-102" value="&lt;font style=&quot;font-size: 20px;&quot;&gt;CheckinDateTime&lt;/font&gt;" style="ellipse;whiteSpace=wrap;html=1;fillColor=#d5e8d4;strokeColor=#82b366;" vertex="1" parent="1">
          <mxGeometry x="10" y="960" width="210" height="40" as="geometry" />
        </mxCell>
        <mxCell id="vbyWSuQ11PQtbqBeCyKR-103" value="&lt;font style=&quot;font-size: 20px;&quot;&gt;CheckoutDateTime&lt;/font&gt;" style="ellipse;whiteSpace=wrap;html=1;fillColor=#d5e8d4;strokeColor=#82b366;" vertex="1" parent="1">
          <mxGeometry x="-235" y="975" width="210" height="40" as="geometry" />
        </mxCell>
        <mxCell id="vbyWSuQ11PQtbqBeCyKR-104" value="" style="endArrow=none;html=1;rounded=0;entryX=0.5;entryY=1;entryDx=0;entryDy=0;exitX=0;exitY=0;exitDx=0;exitDy=0;" edge="1" parent="1" source="vbyWSuQ11PQtbqBeCyKR-97" target="vbyWSuQ11PQtbqBeCyKR-101">
          <mxGeometry width="50" height="50" relative="1" as="geometry">
            <mxPoint x="-80" y="845" as="sourcePoint" />
            <mxPoint x="-85" y="789" as="targetPoint" />
          </mxGeometry>
        </mxCell>
        <mxCell id="vbyWSuQ11PQtbqBeCyKR-105" value="" style="endArrow=none;html=1;rounded=0;entryX=0.5;entryY=0;entryDx=0;entryDy=0;exitX=0.25;exitY=1;exitDx=0;exitDy=0;" edge="1" parent="1" source="vbyWSuQ11PQtbqBeCyKR-97" target="vbyWSuQ11PQtbqBeCyKR-103">
          <mxGeometry width="50" height="50" relative="1" as="geometry">
            <mxPoint x="-70" y="855" as="sourcePoint" />
            <mxPoint x="-110" y="886" as="targetPoint" />
          </mxGeometry>
        </mxCell>
        <mxCell id="vbyWSuQ11PQtbqBeCyKR-106" value="" style="endArrow=none;html=1;rounded=0;entryX=0.5;entryY=0;entryDx=0;entryDy=0;exitX=0.75;exitY=1;exitDx=0;exitDy=0;" edge="1" parent="1" source="vbyWSuQ11PQtbqBeCyKR-97" target="vbyWSuQ11PQtbqBeCyKR-102">
          <mxGeometry width="50" height="50" relative="1" as="geometry">
            <mxPoint x="-45" y="870" as="sourcePoint" />
            <mxPoint x="-65" y="935" as="targetPoint" />
          </mxGeometry>
        </mxCell>
        <mxCell id="vbyWSuQ11PQtbqBeCyKR-107" value="&lt;font style=&quot;font-size: 20px;&quot;&gt;Amount&lt;/font&gt;" style="ellipse;whiteSpace=wrap;html=1;fillColor=#d5e8d4;strokeColor=#82b366;" vertex="1" parent="1">
          <mxGeometry x="40" y="720" width="100" height="40" as="geometry" />
        </mxCell>
        <mxCell id="vbyWSuQ11PQtbqBeCyKR-109" value="" style="endArrow=none;html=1;rounded=0;entryX=0.5;entryY=1;entryDx=0;entryDy=0;exitX=0.75;exitY=0;exitDx=0;exitDy=0;" edge="1" parent="1" source="vbyWSuQ11PQtbqBeCyKR-97" target="vbyWSuQ11PQtbqBeCyKR-107">
          <mxGeometry width="50" height="50" relative="1" as="geometry">
            <mxPoint x="-30" y="815" as="sourcePoint" />
            <mxPoint x="-85" y="789" as="targetPoint" />
          </mxGeometry>
        </mxCell>
        <mxCell id="vbyWSuQ11PQtbqBeCyKR-112" style="edgeStyle=orthogonalEdgeStyle;rounded=0;orthogonalLoop=1;jettySize=auto;html=1;exitX=0.5;exitY=1;exitDx=0;exitDy=0;entryX=0.5;entryY=0;entryDx=0;entryDy=0;endArrow=none;endFill=0;" edge="1" parent="1" source="vbyWSuQ11PQtbqBeCyKR-110" target="vbyWSuQ11PQtbqBeCyKR-97">
          <mxGeometry relative="1" as="geometry" />
        </mxCell>
        <mxCell id="vbyWSuQ11PQtbqBeCyKR-114" value="&lt;font style=&quot;font-size: 20px;&quot;&gt;M&lt;/font&gt;" style="edgeLabel;html=1;align=center;verticalAlign=middle;resizable=0;points=[];" vertex="1" connectable="0" parent="vbyWSuQ11PQtbqBeCyKR-112">
          <mxGeometry x="0.6498" relative="1" as="geometry">
            <mxPoint as="offset" />
          </mxGeometry>
        </mxCell>
        <mxCell id="vbyWSuQ11PQtbqBeCyKR-110" value="&lt;font style=&quot;font-size: 20px;&quot;&gt;Makes&lt;/font&gt;" style="rhombus;whiteSpace=wrap;html=1;fillColor=#fad7ac;strokeColor=#b46504;" vertex="1" parent="1">
          <mxGeometry x="-80" y="448" width="100" height="102.5" as="geometry" />
        </mxCell>
        <mxCell id="vbyWSuQ11PQtbqBeCyKR-115" value="&lt;font style=&quot;font-size: 20px;&quot;&gt;IsAvailable&lt;/font&gt;" style="ellipse;whiteSpace=wrap;html=1;fillColor=#d5e8d4;strokeColor=#82b366;" vertex="1" parent="1">
          <mxGeometry x="790" y="770" width="140" height="50" as="geometry" />
        </mxCell>
        <mxCell id="vbyWSuQ11PQtbqBeCyKR-116" value="" style="endArrow=none;html=1;rounded=0;exitX=1;exitY=0.5;exitDx=0;exitDy=0;entryX=0;entryY=0.5;entryDx=0;entryDy=0;" edge="1" parent="1" source="vbyWSuQ11PQtbqBeCyKR-79" target="vbyWSuQ11PQtbqBeCyKR-115">
          <mxGeometry width="50" height="50" relative="1" as="geometry">
            <mxPoint x="770" y="850" as="sourcePoint" />
            <mxPoint x="830" y="905" as="targetPoint" />
          </mxGeometry>
        </mxCell>
        <mxCell id="vbyWSuQ11PQtbqBeCyKR-118" style="edgeStyle=orthogonalEdgeStyle;rounded=0;orthogonalLoop=1;jettySize=auto;html=1;exitX=1;exitY=0.5;exitDx=0;exitDy=0;entryX=0;entryY=0.5;entryDx=0;entryDy=0;endArrow=none;endFill=0;" edge="1" parent="1" source="vbyWSuQ11PQtbqBeCyKR-117" target="vbyWSuQ11PQtbqBeCyKR-79">
          <mxGeometry relative="1" as="geometry" />
        </mxCell>
        <mxCell id="vbyWSuQ11PQtbqBeCyKR-121" value="&lt;font style=&quot;font-size: 20px;&quot;&gt;1&lt;/font&gt;" style="edgeLabel;html=1;align=center;verticalAlign=middle;resizable=0;points=[];" vertex="1" connectable="0" parent="vbyWSuQ11PQtbqBeCyKR-118">
          <mxGeometry x="0.56" relative="1" as="geometry">
            <mxPoint x="1" as="offset" />
          </mxGeometry>
        </mxCell>
        <mxCell id="vbyWSuQ11PQtbqBeCyKR-117" value="&lt;font style=&quot;font-size: 20px;&quot;&gt;Has&lt;/font&gt;" style="rhombus;whiteSpace=wrap;html=1;fillColor=#fad7ac;strokeColor=#b46504;" vertex="1" parent="1">
          <mxGeometry x="360" y="788.75" width="100" height="102.5" as="geometry" />
        </mxCell>
        <mxCell id="vbyWSuQ11PQtbqBeCyKR-133" style="edgeStyle=orthogonalEdgeStyle;rounded=0;orthogonalLoop=1;jettySize=auto;html=1;exitX=0.5;exitY=1;exitDx=0;exitDy=0;entryX=0.5;entryY=0;entryDx=0;entryDy=0;endArrow=none;endFill=0;" edge="1" parent="1" source="vbyWSuQ11PQtbqBeCyKR-122" target="vbyWSuQ11PQtbqBeCyKR-131">
          <mxGeometry relative="1" as="geometry" />
        </mxCell>
        <mxCell id="vbyWSuQ11PQtbqBeCyKR-135" value="&lt;font style=&quot;font-size: 20px;&quot;&gt;M&lt;/font&gt;" style="edgeLabel;html=1;align=center;verticalAlign=middle;resizable=0;points=[];" vertex="1" connectable="0" parent="vbyWSuQ11PQtbqBeCyKR-133">
          <mxGeometry x="-0.7879" relative="1" as="geometry">
            <mxPoint as="offset" />
          </mxGeometry>
        </mxCell>
        <mxCell id="vbyWSuQ11PQtbqBeCyKR-122" value="&lt;font style=&quot;font-size: 20px;&quot;&gt;BookingGuests&lt;/font&gt;" style="rounded=0;whiteSpace=wrap;html=1;fillColor=#f8cecc;strokeColor=#b85450;" vertex="1" parent="1">
          <mxGeometry x="-490" y="525" width="180" height="50" as="geometry" />
        </mxCell>
        <mxCell id="vbyWSuQ11PQtbqBeCyKR-123" value="&lt;font style=&quot;font-size: 20px;&quot;&gt;&lt;u&gt;ID&lt;/u&gt;&lt;/font&gt;" style="ellipse;whiteSpace=wrap;html=1;fillColor=#d5e8d4;strokeColor=#82b366;" vertex="1" parent="1">
          <mxGeometry x="-565" y="445" width="100" height="40" as="geometry" />
        </mxCell>
        <mxCell id="vbyWSuQ11PQtbqBeCyKR-124" value="&lt;font style=&quot;font-size: 20px;&quot;&gt;Name&lt;/font&gt;" style="ellipse;whiteSpace=wrap;html=1;fillColor=#d5e8d4;strokeColor=#82b366;" vertex="1" parent="1">
          <mxGeometry x="-330" y="445" width="100" height="40" as="geometry" />
        </mxCell>
        <mxCell id="vbyWSuQ11PQtbqBeCyKR-125" value="&lt;font style=&quot;font-size: 20px;&quot;&gt;Age&lt;/font&gt;" style="ellipse;whiteSpace=wrap;html=1;fillColor=#d5e8d4;strokeColor=#82b366;" vertex="1" parent="1">
          <mxGeometry x="-315" y="625" width="100" height="40" as="geometry" />
        </mxCell>
        <mxCell id="vbyWSuQ11PQtbqBeCyKR-126" value="&lt;font style=&quot;font-size: 20px;&quot;&gt;Gender&lt;/font&gt;" style="ellipse;whiteSpace=wrap;html=1;fillColor=#d5e8d4;strokeColor=#82b366;" vertex="1" parent="1">
          <mxGeometry x="-585" y="620" width="100" height="40" as="geometry" />
        </mxCell>
        <mxCell id="vbyWSuQ11PQtbqBeCyKR-127" value="" style="endArrow=none;html=1;rounded=0;entryX=1;entryY=1;entryDx=0;entryDy=0;exitX=0.25;exitY=0;exitDx=0;exitDy=0;" edge="1" parent="1" source="vbyWSuQ11PQtbqBeCyKR-122" target="vbyWSuQ11PQtbqBeCyKR-123">
          <mxGeometry width="50" height="50" relative="1" as="geometry">
            <mxPoint x="-270" y="360" as="sourcePoint" />
            <mxPoint x="-315" y="416" as="targetPoint" />
          </mxGeometry>
        </mxCell>
        <mxCell id="vbyWSuQ11PQtbqBeCyKR-128" value="" style="endArrow=none;html=1;rounded=0;entryX=0;entryY=1;entryDx=0;entryDy=0;exitX=0.75;exitY=0;exitDx=0;exitDy=0;" edge="1" parent="1" source="vbyWSuQ11PQtbqBeCyKR-122" target="vbyWSuQ11PQtbqBeCyKR-124">
          <mxGeometry width="50" height="50" relative="1" as="geometry">
            <mxPoint x="-435" y="535" as="sourcePoint" />
            <mxPoint x="-470" y="489" as="targetPoint" />
          </mxGeometry>
        </mxCell>
        <mxCell id="vbyWSuQ11PQtbqBeCyKR-129" value="" style="endArrow=none;html=1;rounded=0;entryX=0;entryY=0;entryDx=0;entryDy=0;exitX=0.75;exitY=1;exitDx=0;exitDy=0;" edge="1" parent="1" source="vbyWSuQ11PQtbqBeCyKR-122" target="vbyWSuQ11PQtbqBeCyKR-125">
          <mxGeometry width="50" height="50" relative="1" as="geometry">
            <mxPoint x="-345" y="535" as="sourcePoint" />
            <mxPoint x="-305" y="489" as="targetPoint" />
          </mxGeometry>
        </mxCell>
        <mxCell id="vbyWSuQ11PQtbqBeCyKR-130" value="" style="endArrow=none;html=1;rounded=0;entryX=1;entryY=0;entryDx=0;entryDy=0;exitX=0.25;exitY=1;exitDx=0;exitDy=0;" edge="1" parent="1" source="vbyWSuQ11PQtbqBeCyKR-122" target="vbyWSuQ11PQtbqBeCyKR-126">
          <mxGeometry width="50" height="50" relative="1" as="geometry">
            <mxPoint x="-345" y="585" as="sourcePoint" />
            <mxPoint x="-290" y="641" as="targetPoint" />
          </mxGeometry>
        </mxCell>
        <mxCell id="vbyWSuQ11PQtbqBeCyKR-132" style="edgeStyle=orthogonalEdgeStyle;rounded=0;orthogonalLoop=1;jettySize=auto;html=1;exitX=1;exitY=0.5;exitDx=0;exitDy=0;entryX=0;entryY=0.5;entryDx=0;entryDy=0;endArrow=none;endFill=0;" edge="1" parent="1" source="vbyWSuQ11PQtbqBeCyKR-131" target="vbyWSuQ11PQtbqBeCyKR-97">
          <mxGeometry relative="1" as="geometry" />
        </mxCell>
        <mxCell id="vbyWSuQ11PQtbqBeCyKR-134" value="&lt;font style=&quot;font-size: 20px;&quot;&gt;1&lt;/font&gt;" style="edgeLabel;html=1;align=center;verticalAlign=middle;resizable=0;points=[];" vertex="1" connectable="0" parent="vbyWSuQ11PQtbqBeCyKR-132">
          <mxGeometry x="0.6604" relative="1" as="geometry">
            <mxPoint as="offset" />
          </mxGeometry>
        </mxCell>
        <mxCell id="vbyWSuQ11PQtbqBeCyKR-131" value="&lt;font style=&quot;font-size: 20px;&quot;&gt;Contains&lt;/font&gt;" style="rhombus;whiteSpace=wrap;html=1;fillColor=#fad7ac;strokeColor=#b46504;" vertex="1" parent="1">
          <mxGeometry x="-460" y="788.75" width="120" height="101.25" as="geometry" />
        </mxCell>
        <mxCell id="vbyWSuQ11PQtbqBeCyKR-136" value="&lt;font style=&quot;font-size: 20px;&quot;&gt;IsApproved&lt;/font&gt;" style="ellipse;whiteSpace=wrap;html=1;fillColor=#d5e8d4;strokeColor=#82b366;" vertex="1" parent="1">
          <mxGeometry x="815" y="450" width="135" height="50" as="geometry" />
        </mxCell>
        <mxCell id="vbyWSuQ11PQtbqBeCyKR-137" value="" style="endArrow=none;html=1;rounded=0;exitX=1;exitY=0.25;exitDx=0;exitDy=0;entryX=0;entryY=0.5;entryDx=0;entryDy=0;" edge="1" parent="1" source="vbyWSuQ11PQtbqBeCyKR-17" target="vbyWSuQ11PQtbqBeCyKR-136">
          <mxGeometry width="50" height="50" relative="1" as="geometry">
            <mxPoint x="745" y="535" as="sourcePoint" />
            <mxPoint x="810" y="430" as="targetPoint" />
          </mxGeometry>
        </mxCell>
        <mxCell id="vbyWSuQ11PQtbqBeCyKR-138" value="&lt;font style=&quot;font-size: 20px;&quot;&gt;IsBlocked&lt;/font&gt;" style="ellipse;whiteSpace=wrap;html=1;fillColor=#d5e8d4;strokeColor=#82b366;" vertex="1" parent="1">
          <mxGeometry x="260" y="345" width="120" height="45" as="geometry" />
        </mxCell>
        <mxCell id="vbyWSuQ11PQtbqBeCyKR-139" value="" style="endArrow=none;html=1;rounded=0;exitX=0.75;exitY=1;exitDx=0;exitDy=0;entryX=0.5;entryY=0;entryDx=0;entryDy=0;" edge="1" parent="1" source="vbyWSuQ11PQtbqBeCyKR-2" target="vbyWSuQ11PQtbqBeCyKR-138">
          <mxGeometry width="50" height="50" relative="1" as="geometry">
            <mxPoint x="300" y="260" as="sourcePoint" />
            <mxPoint x="395" y="306" as="targetPoint" />
          </mxGeometry>
        </mxCell>
      </root>
    </mxGraphModel>
  </diagram>
</mxfile>
